<?xml version="1.0" encoding="UTF-8"?>
<svg xmlns="http://www.w3.org/2000/svg" viewBox="0 0 1024 1024" width="1024" height="1024">
  <rect x="0" y="0" width="1024" height="1024" rx="230.4" fill="#151F48"/>
  <rect x="122.88" y="215.04" width="778.24" height="179.2" rx="89.6" fill="#F5F5F5"/>
  <rect x="122.88" y="552.96" width="386.048" height="179.2" rx="89.6" fill="#F5F5F5"/>
  <g transform="translate(396.218 -1332.986) scale(2.074)">
    <path d="M163 1032.500L163 1032.500Q129.500 1032.500 106.250 1009.500Q83 986.500 83 952.500L83 952.500Q83 919 106.250 896Q129.500 873 163 873L163 873Q197 873 220.250 896Q243.500 919 243.500 952.500L243.500 952.500Q243.500 986.500 220.250 1009.500Q197 1032.500 163 1032.500Z" fill="#5B7BE6"/>
  </g>
</svg>
